<svg xmlns="http://www.w3.org/2000/svg" width="22.294" height="22.294" viewBox="0 0 22.294 22.294"><defs><style>.a{fill:none;}</style></defs><path class="a" d="M0,0H22.294V22.294H0Z"/><path d="M18.211,12.2a7.239,7.239,0,0,0,.065-.91,7.24,7.24,0,0,0-.065-.91l1.96-1.533a.469.469,0,0,0,.111-.595L18.424,5.038a.464.464,0,0,0-.409-.232.434.434,0,0,0-.158.028l-2.313.929a6.787,6.787,0,0,0-1.57-.91L13.622,2.39A.453.453,0,0,0,13.166,2H9.451A.453.453,0,0,0,9,2.39L8.643,4.852a7.137,7.137,0,0,0-1.57.91L4.76,4.833a.526.526,0,0,0-.167-.028.46.46,0,0,0-.4.232L2.335,8.252a.458.458,0,0,0,.111.595l1.96,1.533a7.367,7.367,0,0,0-.065.91,7.367,7.367,0,0,0,.065.91l-1.96,1.533a.469.469,0,0,0-.111.595l1.858,3.214a.464.464,0,0,0,.409.232.434.434,0,0,0,.158-.028l2.313-.929a6.787,6.787,0,0,0,1.57.91L9,20.189a.453.453,0,0,0,.455.39h3.716a.453.453,0,0,0,.455-.39l.353-2.462a7.137,7.137,0,0,0,1.57-.91l2.313.929a.526.526,0,0,0,.167.028.46.46,0,0,0,.4-.232l1.858-3.214a.469.469,0,0,0-.111-.595Zm-1.839-1.588a4.963,4.963,0,0,1,.046.678c0,.2-.019.4-.046.678l-.13,1.05.827.65,1,.78-.65,1.124-1.18-.474-.966-.39-.836.632a5.441,5.441,0,0,1-1.161.678l-.985.4-.149,1.05-.186,1.254h-1.3l-.176-1.254-.149-1.05-.985-.4a5.271,5.271,0,0,1-1.143-.66l-.845-.65-.985.4-1.18.474-.65-1.124,1-.78.827-.65-.13-1.05c-.028-.288-.046-.5-.046-.687s.019-.4.046-.678l.13-1.05-.827-.65-1-.78L5.2,7.007l1.18.474.966.39.836-.632a5.44,5.44,0,0,1,1.161-.678l.985-.4.149-1.05.186-1.254H11.95l.176,1.254.149,1.05.985.4a5.271,5.271,0,0,1,1.143.66l.845.65.985-.4L17.412,7l.65,1.124-.994.79-.827.65.13,1.05ZM11.309,7.574a3.716,3.716,0,1,0,3.716,3.716A3.715,3.715,0,0,0,11.309,7.574Zm0,5.574a1.858,1.858,0,1,1,1.858-1.858A1.863,1.863,0,0,1,11.309,13.147Z" transform="translate(-0.161 -0.142)"/></svg>